<?xml version="1.0" encoding="UTF-8" standalone="no"?>
<!DOCTYPE svg PUBLIC "-//W3C//DTD SVG 1.1//EN" "http://www.w3.org/Graphics/SVG/1.1/DTD/svg11.dtd">
<svg width="100%" height="100%" viewBox="0 0 236 289" version="1.1" xmlns="http://www.w3.org/2000/svg" xmlns:xlink="http://www.w3.org/1999/xlink" xml:space="preserve" xmlns:serif="http://www.serif.com/" style="fill-rule:evenodd;clip-rule:evenodd;stroke-linejoin:round;stroke-miterlimit:2;">
    <g id="Mesa-de-trabajo1" serif:id="Mesa de trabajo1" transform="matrix(0.842897,0,0,0.902495,-101.652921,-332.974605)">
        <rect x="120.599" y="368.949" width="279.249" height="319.637" style="fill:none;"/>
        <g transform="matrix(1.581845,0,0,1.477386,-47.78619,-73.342889)">
            <path d="M131.586,306.922L133.586,306.91L135.777,306.906L138.086,306.898C140.18,306.891 142.27,306.883 144.359,306.883L148.281,306.875C152.371,306.867 156.465,306.859 160.555,306.855C165.273,306.852 169.992,306.844 174.711,306.824C178.359,306.809 182.012,306.805 185.66,306.801C187.84,306.801 190.02,306.797 192.195,306.785C194.629,306.773 197.059,306.777 199.492,306.781L201.672,306.762C204.543,306.777 206.727,306.859 209.434,307.879C211.492,309.281 212.793,310.785 214.23,312.82C215.504,315.867 215.699,318.641 215.641,321.898L215.629,323.395C215.547,329.559 215.215,335.715 214.875,341.871L213.363,340.328C211.512,338.512 209.789,337.16 207.312,336.34C205.312,335.961 203.387,335.969 201.352,335.957L200,335.945C198.527,335.938 197.055,335.934 195.578,335.93L192.5,335.918C190.344,335.91 188.191,335.906 186.039,335.906C183.285,335.902 180.535,335.887 177.785,335.867C175.66,335.855 173.539,335.852 171.418,335.852C170.402,335.848 169.391,335.844 168.375,335.836C166.953,335.828 165.531,335.824 164.109,335.832L161.66,335.824C158.973,336.102 157.262,336.793 154.852,337.996C153.469,339.188 152.699,340.352 151.625,341.871C151.035,343.641 150.898,344.676 150.891,346.492L150.883,348.16L150.883,349.992L150.875,351.938C150.867,354.098 150.859,356.258 150.859,358.418L150.84,363.051C150.828,366.816 150.816,370.582 150.809,374.348C150.797,378.73 150.785,383.113 150.766,387.492C150.734,395.777 150.711,404.066 150.688,412.355L150.621,435.129C150.598,442.918 150.57,450.703 150.543,458.492C150.527,463.297 150.512,468.105 150.5,472.914C150.488,476.59 150.477,480.27 150.465,483.949C150.461,485.461 150.457,486.973 150.453,488.488C150.449,490.543 150.441,492.602 150.434,494.656L150.434,496.496C150.422,497.891 150.387,499.285 150.336,500.676L149.688,501.32C147.629,501.559 145.551,501.598 143.477,501.684L141.812,501.77C137.137,501.977 132.465,501.98 127.785,501.973L125.703,501.973L120.648,501.969C120.578,474.723 120.531,447.473 120.504,420.219C120.492,411.137 120.473,402.055 120.445,392.973C120.422,383.652 120.41,374.332 120.402,365.016C120.402,359.266 120.387,353.512 120.367,347.762C120.355,343.82 120.352,339.879 120.355,335.934C120.355,333.66 120.352,331.383 120.34,329.109C120.324,326.645 120.328,324.176 120.336,321.711L120.312,319.527C120.352,314.816 120.352,314.816 121.184,312.836C122.57,310.672 124.355,309.109 126.457,307.656C128.359,307.02 129.602,306.926 131.586,306.922" style="fill:rgb(1,114,183);fill-rule:nonzero;"/>
        </g>
        <g transform="matrix(1.581845,0,0,1.477386,-47.78619,-73.342889)">
            <path d="M263.926,328.961C265.719,330.09 266.852,331.18 268.188,332.809C269.539,335.758 269.367,338.551 269.359,341.762L269.375,343.895C269.391,346.227 269.391,348.555 269.391,350.883L269.406,355.742C269.414,359.141 269.414,362.535 269.41,365.93C269.406,369.848 269.422,373.77 269.445,377.688C269.469,381.461 269.473,385.238 269.469,389.02C269.469,390.621 269.477,392.227 269.488,393.828C269.504,396.07 269.496,398.316 269.484,400.559L269.508,402.562C269.484,404.906 269.434,406.93 268.477,409.094C267.258,410.965 265.98,412.148 264.18,413.469C261,414.488 257.996,414.449 254.68,414.434L252.465,414.445C250.051,414.457 247.641,414.457 245.227,414.453C243.551,414.457 241.871,414.457 240.195,414.461C236.676,414.469 233.16,414.469 229.645,414.461C225.59,414.453 221.531,414.461 217.473,414.48C213.559,414.496 209.648,414.496 205.734,414.492C204.074,414.492 202.414,414.496 200.754,414.504C198.43,414.516 196.109,414.508 193.785,414.496L191.707,414.516C187.172,414.469 187.172,414.469 185.219,413.633C183.051,412.234 181.457,410.488 180.023,408.363C179.398,406.422 179.293,404.648 179.293,402.621L179.289,400.762L179.297,398.801L179.301,396.797C179.328,391.605 179.566,386.422 180.023,381.25L181.395,382.742C183.297,384.52 184.73,385.418 187.121,386.414C189.355,386.707 189.355,386.707 191.758,386.676L193.109,386.688C194.574,386.699 196.039,386.695 197.508,386.695L200.582,386.703C202.727,386.711 204.875,386.707 207.02,386.703C209.762,386.695 212.504,386.707 215.242,386.727C217.359,386.738 219.477,386.738 221.594,386.734C222.605,386.734 223.613,386.738 224.625,386.746C226.043,386.754 227.457,386.75 228.875,386.738L231.309,386.738C234.203,386.328 235.695,385.477 238.109,383.832C239.555,382.297 240.148,380.695 240.691,378.668C241.039,375.547 241.039,372.441 241.012,369.305L241.012,366.586C241.012,364.695 241.004,362.801 240.992,360.91C240.977,358.496 240.973,356.082 240.984,353.668C240.988,351.801 240.98,349.93 240.973,348.059L240.973,345.391C240.992,338.543 240.992,338.543 238.754,332.188C237.746,330.965 236.73,330.004 235.527,328.961C238.637,328.742 241.746,328.535 244.859,328.336C245.914,328.27 246.969,328.199 248.027,328.121C259.031,327.352 259.031,327.352 263.926,328.961" style="fill:rgb(1,114,183);fill-rule:nonzero;"/>
        </g>
        <g transform="matrix(1.581845,0,0,1.477386,-47.78619,-73.342889)">
            <path d="M150.883,321.098L152.629,321.086C154.535,321.074 156.441,321.066 158.348,321.059L160.328,321.051C163.781,321.039 167.238,321.027 170.691,321.023C174.25,321.016 177.812,320.992 181.371,320.969C184.117,320.949 186.863,320.945 189.605,320.941C190.918,320.941 192.23,320.934 193.543,320.922C195.383,320.906 197.223,320.906 199.066,320.91L200.691,320.883C204.09,320.914 206.672,321.617 209.758,323.043C211.781,324.266 212.887,325.734 214.23,327.668C215.004,329.219 214.949,330.184 214.938,331.91L214.93,333.664L214.914,335.496L214.906,337.344C214.898,338.852 214.887,340.363 214.875,341.871L213.363,340.328C211.512,338.512 209.789,337.16 207.312,336.34C205.312,335.961 203.387,335.969 201.352,335.957L200,335.945C198.527,335.938 197.055,335.934 195.578,335.93L192.5,335.918C190.344,335.91 188.191,335.906 186.039,335.906C183.285,335.902 180.535,335.887 177.785,335.867C175.66,335.855 173.539,335.852 171.418,335.852C170.402,335.848 169.391,335.844 168.375,335.836C166.953,335.828 165.531,335.824 164.109,335.832L161.66,335.824C158.973,336.102 157.262,336.793 154.852,337.996C153.469,339.188 152.699,340.352 151.625,341.871C151.035,343.641 150.898,344.676 150.891,346.492L150.883,348.16L150.883,349.992L150.875,351.938C150.867,354.098 150.859,356.258 150.859,358.418L150.84,363.051C150.828,366.816 150.816,370.582 150.809,374.348C150.797,378.73 150.785,383.113 150.766,387.492C150.734,395.777 150.711,404.066 150.688,412.355L150.625,433.711L150.621,435.129C150.598,442.918 150.57,450.703 150.543,458.492C150.527,463.297 150.512,468.105 150.5,472.914C150.488,476.59 150.477,480.27 150.465,483.949C150.461,485.461 150.457,486.973 150.453,488.488C150.449,490.543 150.441,492.602 150.434,494.656L150.434,496.496C150.422,497.891 150.387,499.285 150.336,500.676L149.688,501.32C148.633,501.375 147.578,501.395 146.52,501.387L144.586,501.379L142.551,501.363L140.508,501.352C138.836,501.344 137.164,501.336 135.492,501.32C135.391,476.871 135.32,452.418 135.277,427.965L135.273,426.406C135.258,418.082 135.227,409.762 135.191,401.438C135.156,392.898 135.133,384.359 135.125,375.816C135.121,370.547 135.105,365.277 135.074,360.008C135.051,355.965 135.047,351.926 135.051,347.883C135.051,346.227 135.043,344.57 135.027,342.91C135.012,340.648 135.016,338.387 135.023,336.125L134.992,334.137C135.023,331.605 135.109,329.668 136.324,327.414C138.102,324.977 139.785,323.113 142.59,321.859C145.332,321.055 148.043,321.109 150.883,321.098" style="fill:rgb(211,214,220);fill-rule:nonzero;"/>
        </g>
        <g transform="matrix(1.581845,0,0,1.477386,-47.78619,-73.342889)">
            <path d="M187.23,419.652C188.312,419.641 189.391,419.637 190.473,419.648L192.27,419.637C194.223,419.625 196.176,419.629 198.133,419.641L202.215,419.633C205.066,419.629 207.914,419.633 210.766,419.645C214.418,419.66 218.07,419.652 221.719,419.637C224.531,419.629 227.34,419.629 230.148,419.637C231.496,419.637 232.84,419.637 234.188,419.629C236.07,419.625 237.953,419.633 239.836,419.648L241.516,419.633C244.207,419.672 245.656,419.879 248.086,421.172C249.727,422.562 249.727,422.562 251.016,424.5C251.176,425.949 251.176,425.949 251.172,427.676L251.176,429.66L251.164,431.832L251.164,434.121C251.16,436.195 251.156,438.266 251.148,440.34C251.137,442.508 251.137,444.672 251.137,446.836C251.133,450.938 251.121,455.039 251.109,459.145C251.094,463.812 251.086,468.48 251.082,473.152C251.066,482.758 251.047,492.363 251.016,501.969C243.691,502.051 236.379,501.836 229.074,501.32L229.066,499.316C229.043,493.078 229.004,486.836 228.953,480.598C228.93,477.391 228.906,474.184 228.898,470.973C228.887,467.875 228.867,464.777 228.836,461.68C228.824,460.5 228.82,459.32 228.82,458.141C228.82,456.484 228.801,454.828 228.781,453.172L228.789,451.703C228.742,449.25 228.43,447.41 227.277,445.223C226.023,443.262 226.023,443.262 224.629,442.305C222.887,441.828 221.336,441.762 219.527,441.754L217.25,441.734L214.797,441.738L212.27,441.727C210.504,441.723 208.742,441.723 206.977,441.727C204.723,441.73 202.469,441.719 200.211,441.703C198.055,441.695 195.898,441.695 193.738,441.695L191.289,441.68L189.008,441.691L187.004,441.691C184.891,441.969 183.688,442.648 181.957,443.867C180.828,444.891 180.828,444.891 180.023,445.805C179.52,441.211 179.281,436.625 179.215,432.004L179.176,430.52C179.16,428.18 179.34,426.535 180.152,424.316C182.043,421.465 183.758,419.871 187.23,419.656" style="fill:rgb(2,2,2);fill-rule:nonzero;"/>
        </g>
        <g transform="matrix(1.581845,0,0,1.477386,-47.78619,-73.342889)">
            <path d="M248.434,328.961C250.145,329.852 251.617,330.793 252.953,332.188C254.273,334.34 255.012,336.129 255.133,338.633C255.145,339.621 255.148,340.605 255.141,341.594L255.148,343.238C255.156,345.02 255.152,346.805 255.145,348.59C255.148,349.832 255.148,351.078 255.152,352.32C255.152,354.926 255.148,357.531 255.141,360.137C255.129,363.469 255.137,366.805 255.148,370.137C255.156,372.707 255.152,375.273 255.148,377.844C255.145,379.074 255.148,380.301 255.152,381.531C255.156,383.25 255.148,384.969 255.141,386.688L255.152,388.219C255.125,390.605 254.918,392.152 254,394.395C252.777,396.383 251.496,397.805 249.727,399.324C246.785,400.891 243.992,400.809 240.742,400.805L239.004,400.816C237.113,400.828 235.223,400.832 233.332,400.832L229.379,400.844C226.617,400.852 223.859,400.855 221.098,400.855C217.566,400.855 214.031,400.871 210.5,400.895C207.777,400.91 205.059,400.91 202.336,400.91C201.035,400.914 199.73,400.918 198.43,400.93C196.605,400.941 194.785,400.938 192.961,400.93L191.336,400.953C188.672,400.922 187.309,400.719 184.91,399.402C182.633,397.523 181.094,395.812 179.938,393.082C179.285,390.582 179.375,388.387 179.621,385.848L179.73,384.504C179.82,383.418 179.922,382.332 180.023,381.25L181.395,382.742C183.297,384.52 184.73,385.418 187.121,386.414C189.355,386.707 189.355,386.707 191.758,386.676L193.109,386.688C194.574,386.699 196.039,386.695 197.508,386.695L200.582,386.703C202.727,386.711 204.875,386.707 207.02,386.703C209.762,386.695 212.504,386.707 215.242,386.727C217.359,386.738 219.477,386.738 221.594,386.734C222.605,386.734 223.613,386.738 224.625,386.746C226.043,386.754 227.457,386.75 228.875,386.738L231.309,386.738C234.203,386.328 235.695,385.477 238.109,383.832C239.555,382.301 240.148,380.695 240.691,378.668C241.039,375.547 241.039,372.441 241.012,369.305L241.012,366.586C241.012,364.695 241.004,362.801 240.992,360.91C240.977,358.496 240.973,356.082 240.984,353.668C240.988,351.801 240.98,349.93 240.973,348.059L240.973,345.391C240.98,340.582 240.926,336.535 238.754,332.188C237.746,330.965 236.73,330 235.527,328.961C245.094,328.023 245.094,328.023 248.434,328.961M189.984,430.684L191.414,430.668C192.965,430.652 194.52,430.652 196.074,430.652L199.324,430.641C201.598,430.629 203.867,430.629 206.137,430.633C209.039,430.637 211.941,430.617 214.848,430.59C217.086,430.574 219.324,430.574 221.562,430.574C222.633,430.574 223.703,430.566 224.773,430.555C232.988,430.477 232.988,430.477 235.879,431.586C237.492,432.648 238.559,433.832 239.492,435.52C240.285,438.238 240.215,440.828 240.191,443.645L240.191,445.535C240.191,447.594 240.18,449.652 240.172,451.707L240.164,455.992C240.16,459.75 240.148,463.504 240.133,467.262C240.121,471.094 240.113,474.926 240.105,478.762C240.094,486.281 240.07,493.801 240.043,501.32L229.074,501.32L229.055,496.477C229.031,491.184 228.996,485.891 228.953,480.598C228.93,477.391 228.906,474.184 228.898,470.973C228.887,467.875 228.867,464.777 228.836,461.68C228.824,460.5 228.82,459.32 228.82,458.141C228.82,456.484 228.801,454.828 228.781,453.172L228.789,451.703C228.742,449.25 228.43,447.41 227.277,445.223C226.023,443.262 226.023,443.262 224.629,442.305C222.887,441.828 221.336,441.762 219.527,441.754L217.25,441.734L214.797,441.738L212.27,441.727C210.504,441.723 208.742,441.723 206.977,441.727C204.723,441.73 202.469,441.719 200.211,441.703C198.055,441.695 195.898,441.695 193.738,441.695L191.289,441.68L189.008,441.691L187.004,441.691C184.891,441.969 183.688,442.648 181.957,443.867C180.828,444.891 180.828,444.891 180.023,445.805C179.031,437.926 179.031,437.926 179.797,435.371C180.75,433.883 181.957,432.895 183.367,431.848C185.684,430.711 187.406,430.703 189.984,430.684" style="fill:rgb(211,214,220);fill-rule:nonzero;"/>
        </g>
        <g transform="matrix(1.581845,0,0,1.477386,-47.78619,-73.342889)">
            <path d="M131.586,306.922L133.586,306.91L135.777,306.906L138.086,306.898C140.18,306.891 142.27,306.883 144.359,306.883L148.281,306.875C152.371,306.867 156.465,306.859 160.555,306.855C165.273,306.852 169.992,306.844 174.711,306.824C178.359,306.809 182.012,306.805 185.66,306.801C187.84,306.801 190.02,306.797 192.195,306.785C194.629,306.773 197.059,306.777 199.492,306.781L201.672,306.762C207.117,306.793 207.117,306.793 209.543,307.992L211,308.949L211,309.594C206.996,310.312 203.102,310.301 199.039,310.254L196.805,310.234C194.379,310.211 191.953,310.188 189.523,310.16L184.465,310.113C180.484,310.078 176.508,310.039 172.527,309.996C167.996,309.953 163.461,309.906 158.93,309.867C149.609,309.777 140.293,309.688 130.973,309.594L130.973,308.949L125.809,308.949L126.457,307.656C128.359,307.02 129.602,306.926 131.586,306.922" style="fill:rgb(1,114,183);fill-rule:nonzero;"/>
        </g>
        <g transform="matrix(1.581845,0,0,1.477386,-47.78619,-73.342889)">
            <path d="M179.379,392.223C180.969,394.324 182.445,396.477 183.895,398.68L181.312,397.387L181.312,408.363L182.605,408.363L183.27,409.957L184.539,411.59C186.586,412.066 188.613,411.949 190.703,411.883L192.57,411.863C194.574,411.84 196.574,411.797 198.578,411.75C200.617,411.723 202.652,411.703 204.691,411.684C206.027,411.668 207.363,411.652 208.699,411.633C213.648,411.574 218.562,411.652 223.508,411.914L225.301,412.008C226.559,412.078 227.816,412.156 229.074,412.234L229.074,412.883C223.879,412.895 218.684,412.906 213.488,412.914C211.074,412.918 208.664,412.922 206.25,412.93C203.926,412.938 201.598,412.941 199.273,412.941C198.383,412.945 197.496,412.945 196.605,412.949C195.363,412.953 194.121,412.953 192.879,412.953L190.734,412.957C189.059,412.883 189.059,412.883 187.766,412.234L187.766,413.527L261.988,413.527L261.988,414.172C252.211,414.234 242.43,414.277 232.652,414.305C228.113,414.316 223.57,414.34 219.031,414.367C214.648,414.395 210.27,414.41 205.887,414.418C204.215,414.422 202.543,414.43 200.871,414.445C198.531,414.465 196.188,414.465 193.848,414.465L191.75,414.492C187.172,414.469 187.172,414.469 185.215,413.633C183.047,412.238 181.457,410.488 180.023,408.363C179.387,406.402 179.301,404.617 179.312,402.562L179.32,400.734L179.336,398.84L179.348,396.918C179.355,395.352 179.363,393.789 179.379,392.223" style="fill:rgb(20,119,173);fill-rule:nonzero;"/>
        </g>
        <g transform="matrix(1.581845,0,0,1.477386,-47.78619,-73.342889)">
            <path d="M150.914,321.121L152.668,321.113C154.586,321.105 156.5,321.105 158.418,321.105L162.414,321.098C165.211,321.094 168.004,321.094 170.797,321.094C174.375,321.094 177.953,321.086 181.531,321.074C184.285,321.066 187.039,321.062 189.789,321.066C191.109,321.066 192.426,321.062 193.746,321.059C195.594,321.051 197.438,321.051 199.285,321.059C199.828,321.051 200.371,321.051 200.93,321.047C203.898,321.062 206.273,321.371 209.066,322.504L209.066,323.148L206.77,323.141C199.648,323.117 192.523,323.098 185.402,323.082C181.738,323.078 178.078,323.066 174.414,323.051C170.883,323.039 167.352,323.031 163.82,323.027C162.469,323.023 161.121,323.02 159.77,323.012C157.887,323.004 156,323.004 154.113,323.004L152.41,322.988C151.07,322.992 149.734,323.066 148.398,323.148L147.109,324.441L145.172,324.441L144.527,323.797L144.527,325.73L138.719,325.73L138.074,328.312L136.137,328.961C136.457,327.586 136.457,327.586 137.426,325.73C139.312,323.996 141.32,322.242 143.805,321.492C146.148,321.016 148.531,321.117 150.914,321.121" style="fill:rgb(163,197,224);fill-rule:nonzero;"/>
        </g>
        <g transform="matrix(1.581845,0,0,1.477386,-47.78619,-73.342889)">
            <path d="M183.25,397.387C185.934,397.336 188.379,397.398 190.996,398.035L190.996,398.68L247.789,399.324L246.5,400.617C244.633,400.75 242.828,400.805 240.961,400.805L239.227,400.816C237.324,400.828 235.422,400.832 233.52,400.832L229.559,400.844C226.789,400.852 224.016,400.855 221.246,400.855C217.695,400.855 214.148,400.871 210.598,400.895C207.871,400.91 205.141,400.91 202.414,400.91C201.105,400.914 199.797,400.918 198.488,400.93C196.656,400.941 194.824,400.938 192.992,400.93L191.359,400.953C189.363,400.93 187.723,400.898 185.898,400.043C184.82,399.344 184.82,399.344 183.25,398.035L183.25,397.387Z" style="fill:rgb(187,210,223);fill-rule:nonzero;"/>
        </g>
        <g transform="matrix(1.581845,0,0,1.477386,-47.78619,-73.342889)">
            <path d="M254.887,336.707L256.824,336.707L257.469,339.289L256.18,339.289L256.199,341.25C256.266,347.375 256.316,353.5 256.348,359.625C256.363,362.773 256.387,365.922 256.422,369.07C256.457,372.113 256.477,375.156 256.484,378.199C256.492,379.355 256.504,380.512 256.52,381.668C256.605,387.609 256.59,392.676 253.918,398.129C252.953,399.324 252.953,399.324 251.598,399.895C250.168,400.09 250.168,400.09 247.789,399.969C248.629,399.297 249.492,398.652 250.371,398.035L251.66,398.035C252.105,397.18 252.531,396.316 252.953,395.453L253.629,394.086C254.434,391.641 254.441,389.309 254.449,386.762L254.469,385.117C254.488,383.332 254.5,381.547 254.512,379.766C254.523,378.523 254.535,377.285 254.547,376.043C254.582,372.785 254.605,369.523 254.633,366.266C254.656,362.938 254.691,359.609 254.723,356.281C254.785,349.758 254.84,343.23 254.887,336.707" style="fill:rgb(1,114,183);fill-rule:nonzero;"/>
        </g>
        <g transform="matrix(1.581845,0,0,1.477386,-47.78619,-73.342889)">
            <path d="M131.586,306.922L133.586,306.91L135.777,306.906L138.086,306.898C140.18,306.891 142.27,306.883 144.359,306.883L148.281,306.875C152.371,306.867 156.465,306.859 160.555,306.855C165.273,306.852 169.992,306.844 174.711,306.824C178.359,306.809 182.012,306.805 185.66,306.801C187.84,306.801 190.02,306.797 192.195,306.785C194.629,306.773 197.059,306.777 199.492,306.781L201.672,306.762C207.117,306.793 207.117,306.793 209.543,307.992L211,308.949L211,309.594C207.289,309.672 207.289,309.672 205.84,308.949L205.84,307.656C196.453,307.727 187.066,307.797 177.68,307.875C173.32,307.91 168.961,307.945 164.605,307.977C160.395,308.008 156.184,308.043 151.973,308.078C150.371,308.09 148.77,308.102 147.164,308.113C144.914,308.129 142.66,308.148 140.41,308.168L138.422,308.18C134.188,308.223 130.02,308.504 125.809,308.949L126.457,307.656C128.359,307.02 129.602,306.926 131.586,306.922" style="fill:rgb(30,123,165);fill-rule:nonzero;"/>
        </g>
        <g transform="matrix(1.581845,0,0,1.477386,-47.78619,-73.342889)">
            <path d="M267.152,332.832C268.102,333.613 268.102,333.613 269.086,334.77C269.332,336.137 269.332,336.137 269.336,337.75L269.355,339.605L269.348,341.633L269.359,343.777C269.375,346.117 269.371,348.461 269.367,350.801L269.375,355.676C269.383,359.086 269.383,362.496 269.375,365.906C269.367,369.844 269.375,373.781 269.395,377.719C269.41,381.508 269.41,385.301 269.406,389.09C269.406,390.703 269.41,392.312 269.418,393.926C269.43,396.18 269.422,398.43 269.41,400.684L269.43,402.707C269.414,404.418 269.367,406.027 269.086,407.715C267.777,409.77 267.777,409.77 266.504,410.945L265.859,408.363L267.797,408.363L268.441,336.062L266.504,335.414L267.152,332.832ZM263.926,328.961C265.902,330.25 265.902,330.25 267.152,331.543L267.152,332.832L263.277,334.125L264.57,331.543L263.203,331.609L261.422,331.664L259.652,331.73L258.117,331.543L256.824,329.605C255.398,329.371 255.398,329.371 253.84,329.484L252.242,329.539L251.016,329.605L252.309,330.25L251.66,331.543L247.145,328.961L247.145,328.312C259.164,327.293 259.164,327.293 263.926,328.961" style="fill:rgb(20,119,173);fill-rule:nonzero;"/>
        </g>
        <g transform="matrix(1.581845,0,0,1.477386,-47.78619,-73.342889)">
            <path d="M182.605,432.246L183.895,432.895L183.531,434.266C183.215,436.34 183.469,437.949 183.895,439.996L181.957,440.641L181.719,442.859L181.312,445.16L180.023,445.805C179.012,437.797 179.012,437.797 179.887,435.328C180.676,434.176 181.617,433.234 182.605,432.246" style="fill:rgb(211,214,220);fill-rule:nonzero;"/>
        </g>
        <g transform="matrix(1.581845,0,0,1.477386,-47.78619,-73.342889)">
            <path d="M179.379,392.223C180.969,394.324 182.445,396.477 183.895,398.68L181.312,397.387L181.312,408.363L182.605,408.363C183.57,409.828 184.402,411.312 185.188,412.883C183.41,412.184 182.504,411.48 181.191,410.059C180.078,408.441 179.719,407.652 179.379,405.781C179.328,404.707 179.305,403.637 179.312,402.562L179.32,400.734L179.336,398.84L179.348,396.918C179.355,395.352 179.363,393.789 179.379,392.223" style="fill:rgb(30,123,165);fill-rule:nonzero;"/>
        </g>
        <g transform="matrix(1.581845,0,0,1.477386,-47.78619,-73.342889)">
            <path d="M145.09,321.859C147.109,322.504 147.109,322.504 148.398,323.797C147.328,324.043 146.254,324.258 145.172,324.441L144.527,323.797L144.527,325.73L138.719,325.73L138.07,328.312L136.137,328.961C136.457,327.586 136.457,327.586 137.426,325.73C139.816,323.293 141.613,321.859 145.09,321.859" style="fill:rgb(187,210,223);fill-rule:nonzero;"/>
        </g>
        <g transform="matrix(1.581845,0,0,1.477386,-47.78619,-73.342889)">
            <path d="M213.582,312.82C214.875,314.113 214.875,314.113 215.273,315.309C215.527,316.734 215.594,318.039 215.582,319.488L215.578,321.051L215.559,322.664L215.551,324.309C215.543,325.645 215.531,326.98 215.52,328.312L214.23,328.961L212.938,325.73L214.23,325.73L213.582,312.82Z" style="fill:rgb(30,123,165);fill-rule:nonzero;"/>
        </g>
        <g transform="matrix(1.581845,0,0,1.477386,-47.78619,-73.342889)">
            <path d="M212.293,325.73C214.23,327.668 214.23,327.668 214.875,328.961C214.926,329.941 214.945,330.926 214.938,331.91L214.93,333.664L214.914,335.496L214.906,337.344C214.898,338.852 214.887,340.363 214.875,341.871L213.582,340.578C213.457,338.617 213.457,338.617 213.504,336.301L213.539,333.977L213.582,332.188L212.293,332.832L212.293,325.73Z" style="fill:rgb(211,214,220);fill-rule:nonzero;"/>
        </g>
        <g transform="matrix(1.581845,0,0,1.477386,-47.78619,-73.342889)">
            <path d="M179.379,426.438L180.023,426.438L180.668,431.602L182.605,430.312L182.605,431.602L183.895,432.246L179.379,436.766L179.379,426.438Z" style="fill:rgb(18,26,17);fill-rule:nonzero;"/>
        </g>
        <g transform="matrix(1.581845,0,0,1.477386,-47.78619,-73.342889)">
            <path d="M262.633,410.945L266.504,410.945C265.496,412.234 265.496,412.234 263.926,413.527C261.586,413.73 261.586,413.73 259.406,413.527L258.117,412.883L258.117,411.59L262.633,411.59L262.633,410.945Z" style="fill:rgb(1,114,183);fill-rule:nonzero;"/>
        </g>
        <g transform="matrix(1.581845,0,0,1.477386,-47.78619,-73.342889)">
            <path d="M254.242,392.223C254.688,393.234 254.688,393.234 254.887,394.805C254.285,397.188 254.285,397.188 252.953,399.324C251.148,399.938 249.727,399.938 247.789,399.969C248.629,399.297 249.492,398.652 250.371,398.035L251.66,398.035C252.645,396.137 253.469,394.215 254.242,392.223" style="fill:rgb(20,119,173);fill-rule:nonzero;"/>
        </g>
        <g transform="matrix(1.581845,0,0,1.477386,-47.78619,-73.342889)">
            <path d="M183.25,397.387C185.934,397.336 188.379,397.398 190.996,398.035C189.945,399.043 189.945,399.043 188.414,399.969C186.395,399.891 186.395,399.891 184.539,399.324L183.25,397.387Z" style="fill:rgb(211,214,220);fill-rule:nonzero;"/>
        </g>
        <g transform="matrix(1.581845,0,0,1.477386,-47.78619,-73.342889)">
            <path d="M182.605,432.246L183.895,432.895L182.605,436.766L180.668,436.766L180.668,438.059L179.379,438.059C180.41,434.484 180.41,434.484 181.719,432.973L182.605,432.246Z" style="fill:rgb(188,189,191);fill-rule:nonzero;"/>
        </g>
        <g transform="matrix(1.581845,0,0,1.477386,-47.78619,-73.342889)">
            <path d="M180.668,390.285L181.957,391.578C182.324,393.293 182.434,394.992 182.605,396.742C181.719,396.016 181.719,396.016 180.668,394.805C179.902,392.75 179.902,392.75 179.379,390.934L180.668,390.285ZM212.293,325.73L214.23,327.668C214.109,330.008 214.109,330.008 213.582,332.188L212.293,332.832L212.293,325.73Z" style="fill:rgb(187,210,223);fill-rule:nonzero;"/>
        </g>
        <g transform="matrix(1.581845,0,0,1.477386,-47.78619,-73.342889)">
            <path d="M265.215,330.25L267.152,331.543L267.152,332.832L263.277,334.125L265.215,330.25Z" style="fill:rgb(20,119,173);fill-rule:nonzero;"/>
        </g>
        <g transform="matrix(1.581845,0,0,1.477386,-47.78619,-73.342889)">
            <path d="M209.066,323.148L209.711,325.086L204.547,325.086L204.547,323.797C206.137,323 207.309,323.102 209.066,323.148" style="fill:rgb(211,214,220);fill-rule:nonzero;"/>
        </g>
        <g transform="matrix(1.581845,0,0,1.477386,-47.78619,-73.342889)">
            <path d="M250.371,330.895C251.621,331.379 251.621,331.379 252.953,332.188C253.438,333.559 253.438,333.559 253.598,334.77L250.371,333.477L250.371,330.895Z" style="fill:rgb(187,210,223);fill-rule:nonzero;"/>
        </g>
        <g transform="matrix(1.581845,0,0,1.477386,-47.78619,-73.342889)">
            <path d="M124.52,308.949L125.809,309.594C124.965,311.207 124.965,311.207 123.875,312.82L121.938,312.82C122.68,311.227 123.258,310.207 124.52,308.949M262.633,410.945L266.504,410.945L263.926,413.527L261.988,412.883L263.277,412.883L262.633,410.945Z" style="fill:rgb(30,123,165);fill-rule:nonzero;"/>
        </g>
        <g transform="matrix(1.581845,0,0,1.477386,-47.78619,-73.342889)">
            <path d="M209.066,323.148C210.316,323.715 210.316,323.715 211.648,324.441L212.293,325.73L208.422,325.73L209.066,323.148Z" style="fill:rgb(187,210,223);fill-rule:nonzero;"/>
        </g>
        <g transform="matrix(1.581845,0,0,1.477386,-47.78619,-73.342889)">
            <path d="M267.152,332.832C268.16,333.641 268.16,333.641 269.086,334.77C268.887,336.184 268.887,336.184 268.441,337.352L268.441,336.062L266.504,335.414L267.152,332.832Z" style="fill:rgb(30,123,165);fill-rule:nonzero;"/>
        </g>
        <g transform="matrix(1.581845,0,0,1.477386,-47.78619,-73.342889)">
            <path d="M183.25,397.387L187.766,397.387L185.832,398.035L185.832,399.324L183.25,398.035L183.25,397.387Z" style="fill:rgb(187,210,223);fill-rule:nonzero;"/>
        </g>
        <g transform="matrix(1.581845,0,0,1.477386,-47.78619,-73.342889)">
            <path d="M136.137,323.148L138.719,323.797L137.426,326.379L136.137,324.441L136.137,323.148Z" style="fill:rgb(1,114,183);fill-rule:nonzero;"/>
        </g>
        <g transform="matrix(1.581845,0,0,1.477386,-47.78619,-73.342889)">
            <path d="M250.371,394.805L251.66,394.805L252.309,396.742L251.66,398.035L250.371,398.035L250.371,394.805Z" style="fill:rgb(187,210,223);fill-rule:nonzero;"/>
        </g>
        <g transform="matrix(1.581845,0,0,1.477386,-47.78619,-73.342889)">
            <path d="M247.789,399.969L251.016,400.617L250.371,401.906L249.078,401.906L249.078,400.617L247.789,399.969Z" style="fill:rgb(1,114,183);fill-rule:nonzero;"/>
        </g>
        <g transform="matrix(1.581845,0,0,1.477386,-47.78619,-73.342889)">
            <path d="M180.668,390.285L181.312,392.223L180.023,393.516L179.379,390.934L180.668,390.285Z" style="fill:rgb(187,210,223);fill-rule:nonzero;"/>
        </g>
    </g>
</svg>
